<svg width="32" height="32" viewBox="0 0 32 32" fill="none" xmlns="http://www.w3.org/2000/svg">
<path d="M7.54344 9.37257L6.04156 6H2L3.50187 9.37257H7.54344Z" fill="#00EBB4"/>
<path d="M14.6799 26.6525C15.4925 26.6525 16.1859 26.5053 16.7384 26.2151C17.2909 25.9248 17.7554 25.5528 18.1012 25.119C18.4421 24.697 18.6985 24.2133 18.8565 23.6943C19.0041 23.2244 19.0827 22.7355 19.0898 22.243V21.5072C19.0903 21.1588 19.0697 20.8107 19.028 20.4649C18.9899 20.1467 18.9295 19.8316 18.8474 19.5219C18.7001 18.9598 18.48 18.4194 18.1929 17.9143C17.9307 17.4577 17.6092 17.0379 17.2368 16.6657C16.9138 16.3467 16.5591 16.0616 16.1782 15.8148L15.8622 15.6112L16.0753 15.3033C16.5086 14.6836 16.8382 13.9975 17.0512 13.2719C17.2702 12.5145 17.3817 11.8008 17.3817 11.1503V10.428C17.3817 9.61543 17.2341 8.92295 16.9433 8.36996C16.6526 7.81697 16.2788 7.3529 15.8414 7.00712C15.414 6.66638 14.9273 6.40744 14.4059 6.24331C13.9373 6.09213 13.4488 6.0115 12.9564 6.00406H8.29007L9.79239 9.37662H12.9587C13.6173 9.37662 13.9802 9.74995 13.9802 10.428V11.1503C13.9869 11.6368 13.9047 12.1206 13.7378 12.5777C13.5839 12.9922 13.3416 13.3684 13.0278 13.68C12.714 13.9915 12.3361 14.2311 11.9204 14.382C11.4609 14.5492 10.9747 14.6315 10.4858 14.6248H5.84021L7.35563 18.0272H12.207C12.6959 18.0206 13.1818 18.1029 13.6412 18.2701C14.0576 18.4237 14.4362 18.6648 14.7517 18.977C15.0624 19.2903 15.3051 19.6643 15.4645 20.0758C15.6374 20.5327 15.7227 21.0182 15.7159 21.5068V22.2137C15.7159 22.4579 15.6794 22.6498 15.6044 22.8005C15.5482 22.9303 15.4573 23.0422 15.3418 23.1239C15.2263 23.2056 15.0906 23.2539 14.9494 23.2637C14.8384 23.2745 14.7521 23.2799 14.6786 23.2799H9.69353L11.1954 26.6525H14.6799Z" fill="white"/>
<path d="M16.2919 6.43336C16.8096 6.84235 17.2452 7.37909 17.5865 8.02823C17.803 8.45024 17.9508 8.90404 18.0244 9.37257H25.2255L26.7269 6H16.495C16.2441 6.00094 15.9936 6.01904 15.7452 6.05417C15.935 6.16927 16.1176 6.29591 16.2919 6.43336Z" fill="white"/>
<path d="M18.1012 25.119C18.4421 24.697 18.6985 24.2133 18.8564 23.6943C18.8986 23.5541 18.9348 23.4159 18.9652 23.2799H16.036L14.5345 26.6525H14.6799C15.4925 26.6525 16.1858 26.5053 16.7384 26.215C17.2909 25.9248 17.7554 25.5528 18.1012 25.119Z" fill="white"/>
<path d="M28.7768 18.7043C28.6126 18.1611 28.3671 17.6459 28.0487 17.1763C27.7554 16.7488 27.4013 16.3663 26.9978 16.0409C26.61 15.7304 26.1877 15.4656 25.7392 15.2519C25.3151 15.049 24.8696 14.8941 24.4111 14.7901C23.9961 14.6945 23.5728 14.6396 23.1471 14.6262H17.3062C17.1772 14.8951 17.033 15.1565 16.8742 15.409C17.183 15.6325 17.4744 15.8791 17.7459 16.1466C18.1644 16.5634 18.5257 17.034 18.8203 17.546C18.9106 17.6995 18.9923 17.862 19.0708 18.0258H23.1201C23.4793 18.0217 23.8359 18.0875 24.1701 18.2195C24.4795 18.343 24.7583 18.5326 24.9867 18.7752C25.2111 19.0188 25.3846 19.3049 25.4968 19.6166C25.6167 19.9534 25.6763 20.3087 25.6728 20.6662C25.6728 21.4485 25.4471 22.085 25.0007 22.5586C24.5542 23.0321 23.9173 23.2781 23.1201 23.2781H19.7073C19.6667 23.4822 19.6148 23.6898 19.5516 23.9011C19.3671 24.5094 19.0671 25.0765 18.6681 25.5713C18.3219 25.9996 17.9046 26.3652 17.4344 26.652H23.1223C23.5498 26.6486 23.9758 26.6011 24.3935 26.5103C24.8512 26.4127 25.2967 26.2649 25.722 26.0697C26.1709 25.8622 26.5949 25.6048 26.986 25.3023C27.3952 24.9852 27.7512 24.6049 28.0405 24.1755C28.3568 23.7021 28.6023 23.1851 28.7691 22.6407C28.9533 22.0615 29.0463 21.3989 29.0463 20.6698C29.0463 19.9408 28.9556 19.279 28.7768 18.7043Z" fill="white"/>
<path d="M17.2362 16.6635C16.9133 16.3445 16.5586 16.0593 16.1777 15.8125L15.8617 15.6089L16.0747 15.3011C16.2256 15.083 16.3645 14.857 16.4909 14.6239C15.705 14.6239 15.0789 14.3842 14.6297 13.9125C14.1806 13.4408 13.9567 12.8052 13.9567 12.0125C13.9567 11.2306 14.1824 10.5896 14.6279 10.107C15.0735 9.62446 15.7059 9.37166 16.4937 9.37166H17.2859C17.221 9.02124 17.1054 8.68212 16.9428 8.36499C16.6494 7.80613 16.2783 7.34794 15.8409 7.00215C15.4685 6.70595 15.0513 6.47098 14.6049 6.30606L14.5598 6.3196C13.8604 6.53905 13.2096 6.89059 12.6426 7.35516C12.0557 7.82735 11.5623 8.45166 11.1701 9.2105C11.143 9.26377 11.1168 9.31749 11.0915 9.37256H12.9586C13.6172 9.37256 13.9802 9.74589 13.9802 10.4239V11.1462C13.9868 11.6328 13.9047 12.1165 13.7377 12.5736C13.5843 12.9889 13.3423 13.3659 13.0284 13.6782C12.7146 13.9905 12.3364 14.2306 11.9203 14.382C11.6438 14.4855 11.3558 14.5554 11.0626 14.5901C11.0978 14.67 11.1339 14.7481 11.1728 14.8239C11.5641 15.5868 12.0589 16.2111 12.6435 16.6793C13.2132 17.1395 13.8647 17.4879 14.5638 17.7062C15.2545 17.9193 15.905 18.0277 16.4977 18.0277H18.2583C18.237 17.9888 18.2163 17.95 18.1942 17.9121C17.9315 17.4554 17.6093 17.0355 17.2362 16.6635Z" fill="white"/>
<path d="M12.5166 13.1618C12.7549 12.9201 12.9395 12.6309 13.0583 12.3131C13.1933 11.9388 13.2591 11.5431 13.2525 11.1453V10.423C13.2525 10.1291 13.1929 10.0975 12.9568 10.0975H10.8252C10.6654 10.6645 10.5846 11.3046 10.5846 12.0125C10.577 12.644 10.6529 13.2738 10.8103 13.8854C11.1008 13.8646 11.387 13.8029 11.6603 13.7021C11.981 13.5852 12.273 13.4009 12.5166 13.1618Z" fill="white"/>
</svg>
